<svg width="24" height="24" viewBox="0 0 24 24" fill="none" xmlns="http://www.w3.org/2000/svg">
  <rect x="3" y="3" width="18" height="18" rx="2" stroke="currentColor" stroke-width="2"/>
  <path d="M7 15L9 13L11 15L15 11L17 13" stroke="currentColor" stroke-width="2" stroke-linecap="round" stroke-linejoin="round"/>
  <circle cx="8.5" cy="8.5" r="1.5" fill="currentColor"/>
  <path d="M6.13 19L7.1 16.06H8.9L9.87 19H8.83L8.58 18.19H7.42L7.17 19H6.13ZM7.67 17.37L8 16.52L8.33 17.37H7.67ZM10.2 19V16.06H12.42V16.86H11.16V17.2H12.3V17.96H11.16V18.2H12.42V19H10.2ZM12.81 19V16.06H13.77V18.2H14.91V19H12.81Z" fill="currentColor"/>
</svg> 